<svg width="80" height="80" viewBox="0 0 80 80" fill="none" xmlns="http://www.w3.org/2000/svg">
<path d="M46.7634 13.7966L72.2934 58.4766C75.26 63.67 71.51 70.1333 65.53 70.1333H14.47C8.48669 70.1333 4.73669 63.67 7.70669 58.4766L33.2367 13.7966C36.2267 8.55997 43.7734 8.55997 46.7634 13.7966Z" stroke="#F4BC00" stroke-width="1.5" stroke-linecap="round" stroke-linejoin="round"/>
<path d="M40 43.7333V31.2666" stroke="#F4BC00" stroke-width="1.5" stroke-linecap="round" stroke-linejoin="round"/>
<path d="M39.9965 53.3333C39.8318 53.3339 39.671 53.3834 39.5344 53.4753C39.3978 53.5673 39.2915 53.6977 39.229 53.85C39.1664 54.0023 39.1504 54.1698 39.1829 54.3312C39.2155 54.4926 39.2951 54.6408 39.4118 54.757C39.5284 54.8732 39.6769 54.9523 39.8385 54.9842C40 55.0161 40.1674 54.9994 40.3195 54.9362C40.4716 54.873 40.6015 54.7662 40.693 54.6292C40.7844 54.4923 40.8332 54.3313 40.8332 54.1666C40.8336 54.0568 40.8123 53.9479 40.7703 53.8464C40.7284 53.7449 40.6667 53.6527 40.5889 53.5752C40.5111 53.4977 40.4186 53.4364 40.317 53.3948C40.2153 53.3533 40.1063 53.3324 39.9965 53.3333" stroke="#F4BC00" stroke-width="1.5" stroke-linecap="round" stroke-linejoin="round"/>
</svg>
