<svg width="80" height="80" viewBox="0 0 80 80" fill="none"
    xmlns="http://www.w3.org/2000/svg">
    <path d="M32.5029 33.3533H46.6463V47.4966" stroke="#F4BC00" stroke-width="4" stroke-linecap="round" stroke-linejoin="round"/>
    <path d="M46.6651 33.3333L21.5817 58.4167C19.8217 60.1767 16.9651 60.1767 15.2051 58.4167V58.4167C10.7717 53.9833 8.27505 47.97 8.26172 41.7V41.7C8.26172 37.6 9.05505 33.5 10.6317 29.6433C12.1851 25.8467 14.4951 22.29 17.5784 19.21C23.1084 13.68 30.7484 10.26 39.1851 10.26C47.6217 10.26 55.2617 13.68 60.7917 19.21C66.3217 24.74 69.7417 32.3767 69.7417 40.8167C69.7417 49.2533 66.3217 56.8933 60.7917 62.4233C55.2617 67.9533 47.6251 71.3733 39.1851 71.3733C35.8951 71.3733 32.6117 70.8067 29.4617 69.7467" stroke="#F4BC00" stroke-width="4" stroke-linecap="round" stroke-linejoin="round"/>
</svg>
