<svg width="30" height="29" viewBox="0 0 30 29" fill="none" xmlns="http://www.w3.org/2000/svg">
<g id="Group">
<g id="Clip path group">
<mask id="mask0_1191_4991" style="mask-type:luminance" maskUnits="userSpaceOnUse" x="0" y="0" width="30" height="29">
<g id="64e28945e6">
<path id="Vector" d="M14.8667 28.3581C12.4389 28.3581 10.4046 26.5893 9.94693 24.1671C9.72927 24.1236 9.55903 23.9309 9.5465 23.6904C9.53253 23.4065 9.74323 23.166 10.0153 23.1515H10.032C10.3027 23.1515 10.5204 23.3645 10.5344 23.6398C10.5441 23.8455 10.4367 24.0266 10.272 24.1178C10.7046 26.3734 12.6021 28.0177 14.8653 28.0177C17.4494 28.0177 19.552 25.8345 19.552 23.1515V18.0492C19.3595 17.9783 19.2213 17.7899 19.2213 17.5668C19.2213 17.2829 19.4432 17.0526 19.7167 17.0526C19.9901 17.0526 20.212 17.2829 20.212 17.5668C20.212 17.7899 20.0739 17.9783 19.8813 18.0492V23.1501C19.8813 26.0214 17.6321 28.3567 14.8667 28.3567V28.3581ZM15.3592 27.6135C15.1025 27.6135 14.8848 27.4064 14.8667 27.1369C14.8471 26.8544 15.0523 26.6081 15.3243 26.5878L15.3481 26.5864C15.5392 26.5864 15.6983 26.6892 15.7848 26.8414C17.3838 26.4126 18.5391 24.9074 18.5391 23.1515V16.0689C18.5391 15.9747 18.613 15.898 18.7037 15.898H21.3477C21.4161 15.698 21.5975 15.5546 21.8124 15.5546C22.0859 15.5546 22.3077 15.7849 22.3077 16.0689C22.3077 16.3528 22.0859 16.5832 21.8124 16.5832C21.5975 16.5832 21.4161 16.4398 21.3477 16.2398H18.8697V23.1501C18.8697 25.0711 17.6014 26.7168 15.849 27.176C15.8155 27.4078 15.6313 27.5932 15.3955 27.6106L15.3718 27.6121L15.3592 27.6135ZM7.44521 22.6184C7.17173 22.6184 6.94989 22.3881 6.94989 22.1041C6.94989 21.8202 7.17173 21.5898 7.44521 21.5898C7.66009 21.5898 7.84147 21.7333 7.90982 21.9332H10.8636V16.5006C10.6711 16.4296 10.533 16.2413 10.533 16.0182C10.533 15.7343 10.7548 15.5039 11.0283 15.5039C11.3017 15.5039 11.5236 15.7343 11.5236 16.0182C11.5236 16.2413 11.3855 16.4296 11.1929 16.5006V22.1041C11.1929 22.1983 11.119 22.2751 11.0283 22.2751H7.90982C7.84147 22.475 7.66009 22.6184 7.44521 22.6184ZM8.10935 20.9785C7.83587 20.9785 7.61402 20.7482 7.61402 20.4642C7.61402 20.1803 7.83587 19.95 8.10935 19.95C8.32422 19.95 8.5056 20.0934 8.57399 20.2933H9.85205V14.5376C9.65952 14.4666 9.52139 14.2783 9.52139 14.0552C9.52139 13.7713 9.74323 13.5409 10.0167 13.5409C10.2902 13.5409 10.512 13.7713 10.512 14.0552C10.512 14.2783 10.3739 14.4666 10.1813 14.5376V20.4642C10.1813 20.5584 10.1074 20.6352 10.0167 20.6352H8.57399C8.5056 20.8351 8.32422 20.9785 8.10935 20.9785ZM15.256 24.664C14.6713 24.664 14.197 24.17 14.197 23.563V11.3447L14.3616 11.2679H16.1517C16.2424 11.2679 16.3164 11.3447 16.3164 11.4389V21.1031C16.5089 21.1741 16.6471 21.3624 16.6471 21.5855C16.6471 21.8695 16.4252 22.0998 16.1517 22.0998C15.8782 22.0998 15.6564 21.8695 15.6564 21.5855C15.6564 21.3624 15.7945 21.1741 15.9871 21.1031V11.6098H14.5248V23.563C14.5248 23.9817 14.8527 24.3221 15.256 24.3221L15.5573 24.2526C15.5155 24.1483 15.5043 24.0295 15.5378 23.9121C15.6006 23.6876 15.7987 23.5427 16.0122 23.5427L16.1043 23.55C16.4126 23.6441 16.5633 23.9295 16.4866 24.2018C16.4238 24.4264 16.2257 24.5713 16.0122 24.5713L15.9187 24.564L15.842 24.5409L15.7876 24.5148C15.6285 24.6104 15.4443 24.664 15.256 24.664ZM7.88332 16.8034C7.60984 16.8034 7.388 16.573 7.388 16.2891C7.388 16.066 7.52613 15.8777 7.71869 15.8067V12.6601H5.01463C3.1645 12.6601 1.57946 11.3432 1.13714 9.52371C0.913903 9.48893 0.735308 9.29771 0.71856 9.05288C0.699025 8.77037 0.904151 8.52409 1.17621 8.50381L1.18878 8.50237H1.21249C1.46922 8.50237 1.68689 8.70953 1.70503 8.97898C1.71899 9.18036 1.61714 9.36145 1.46086 9.45707C1.87387 11.1173 3.32356 12.3182 5.01463 12.3182H7.88332C7.974 12.3182 8.04796 12.395 8.04796 12.4892V15.8067C8.24051 15.8777 8.37865 16.066 8.37865 16.2891C8.37865 16.573 8.1568 16.8034 7.88332 16.8034ZM9.70695 10.009V8.49224H5.52112V10.009H9.70695ZM5.35646 10.3509L5.19183 10.2741V8.22713L5.35646 8.15034H9.87158C9.96229 8.15034 10.0362 8.22713 10.0362 8.32127V10.18C10.0362 10.2741 9.96229 10.3509 9.87158 10.3509H5.35646ZM13.4505 10.3509L13.2858 10.2741V8.32127C13.2858 8.22713 13.3598 8.15034 13.4505 8.15034H21.0534C21.1217 7.95041 21.3031 7.80699 21.518 7.80699C21.7915 7.80699 22.0133 8.03736 22.0133 8.32127C22.0133 8.60522 21.7915 8.83556 21.518 8.83556C21.3031 8.83556 21.1217 8.69214 21.0534 8.49224H13.6151V10.009H24.942C25.3452 10.009 25.6731 9.66857 25.6731 9.24988L25.6061 8.93697C25.5461 8.96307 25.4806 8.97753 25.4122 8.97753L25.3229 8.97175C25.0159 8.87902 24.8652 8.59365 24.942 8.32127C25.0048 8.09672 25.2029 7.95186 25.4164 7.95186L25.5099 7.95912C25.8182 8.05327 25.9689 8.33866 25.8922 8.61101L25.8838 8.64289L25.8587 8.70085C25.9508 8.866 26.0038 9.05577 26.0038 9.25281C26.0038 9.85979 25.528 10.3538 24.9434 10.3538L13.4505 10.3509ZM13.251 22.9125C12.9775 22.9125 12.7556 22.6822 12.7556 22.3982C12.7556 22.1751 12.8938 21.9868 13.0863 21.9158V11.6098H12.0399C11.9492 11.6098 11.8752 11.533 11.8752 11.4389V7.00152C11.8752 6.90737 11.9492 6.83058 12.0399 6.83058H22.8114C22.8798 6.63065 23.0612 6.48723 23.276 6.48723C23.5495 6.48723 23.7714 6.71757 23.7714 7.00152C23.7714 7.28547 23.5495 7.51581 23.276 7.51581C23.0612 7.51581 22.8798 7.37238 22.8114 7.17249H12.2045V11.2679H13.251C13.3416 11.2679 13.4156 11.3447 13.4156 11.4389V21.9173C13.6081 21.9883 13.7463 22.1766 13.7463 22.3997C13.7463 22.6836 13.5244 22.914 13.251 22.914V22.9125ZM5.01463 11.6098C3.36541 11.6098 2.02315 10.2162 2.02315 8.50381C2.02315 6.79147 3.36541 5.39782 5.01463 5.39782H7.54288C7.61124 5.19792 7.79262 5.0545 8.00749 5.0545C8.28098 5.0545 8.50282 5.28483 8.50282 5.56878C8.50282 5.8527 8.28098 6.08307 8.00749 6.08307C7.79262 6.08307 7.61124 5.93965 7.54288 5.73972H5.01463C3.5468 5.73972 2.35245 6.97979 2.35245 8.50381C2.35245 10.0278 3.5468 11.2679 5.01463 11.2679H10.8636V7.17249H5.15276C4.49559 7.17249 3.9598 7.72878 3.9598 8.41111V8.84716C4.15236 8.91813 4.29049 9.10649 4.29049 9.32956C4.29049 9.61351 4.06862 9.84385 3.79517 9.84385C3.52169 9.84385 3.29985 9.61351 3.29985 9.32956C3.29985 9.10649 3.43798 8.91813 3.63051 8.84716V8.40967C3.63051 7.53898 4.31281 6.82914 5.15137 6.82914H11.0283C11.119 6.82914 11.1929 6.90593 11.1929 7.00007V11.4389C11.1929 11.533 11.119 11.6098 11.0283 11.6098H5.01463ZM14.8667 26.2561C13.2175 26.2561 11.8752 24.8624 11.8752 23.1501V12.6601H9.34976C9.28137 12.86 9.09999 13.0035 8.88511 13.0035C8.61167 13.0035 8.38979 12.7731 8.38979 12.4892C8.38979 12.2052 8.61167 11.9749 8.88511 11.9749C9.09999 11.9749 9.28137 12.1183 9.34976 12.3182H12.0399C12.1305 12.3182 12.2045 12.395 12.2045 12.4892V23.1501C12.2045 24.6741 13.3988 25.9142 14.8667 25.9142C16.3345 25.9142 17.5289 24.6741 17.5289 23.1501V11.4389C17.5289 11.3447 17.6028 11.2679 17.6935 11.2679H24.7188C26.1866 11.2679 27.3809 10.0278 27.3809 8.50381C27.3809 6.97979 26.1866 5.73972 24.7188 5.73972H12.0399C11.9492 5.73972 11.8752 5.66293 11.8752 5.56878V4.68942H5.97459C5.90621 4.88935 5.72483 5.03277 5.50995 5.03277C5.23647 5.03277 5.01463 4.8024 5.01463 4.51848C5.01463 4.23453 5.23647 4.0042 5.50995 4.0042C5.72483 4.0042 5.90621 4.14759 5.97459 4.34752H12.0399C12.1305 4.34752 12.2045 4.4243 12.2045 4.51848V5.39782H24.7173C26.3666 5.39782 27.7088 6.79147 27.7088 8.50381C27.7088 10.2162 26.3666 11.6098 24.7173 11.6098H17.8582V23.1501C17.8582 24.8624 16.5159 26.2561 14.8667 26.2561ZM6.81593 14.0538C6.60105 14.0538 6.41967 13.9103 6.35132 13.7104H5.01463C2.2492 13.7119 0 11.3751 0 8.50381C0 5.63252 2.2492 3.29721 5.01463 3.29721H11.3603C11.4287 3.09729 11.6101 2.95386 11.825 2.95386C12.0985 2.95386 12.3203 3.18423 12.3203 3.46815C12.3203 3.7521 12.0985 3.98244 11.825 3.98244C11.6101 3.98244 11.4287 3.83902 11.3603 3.63912H5.01463C2.43058 3.63912 0.329297 5.82085 0.329297 8.50381C0.329297 11.1868 2.43058 13.37 5.01463 13.37H6.34989C6.41828 13.1701 6.59966 13.0266 6.81454 13.0266C7.08802 13.0266 7.30986 13.257 7.30986 13.5409C7.30986 13.8249 7.08802 14.0552 6.81454 14.0552L6.81593 14.0538ZM21.2291 14.0538C20.9557 14.0538 20.7338 13.8234 20.7338 13.5395C20.7338 13.2555 20.9557 13.0252 21.2291 13.0252C21.444 13.0252 21.6254 13.1686 21.6938 13.3685H24.7188C27.3028 13.3685 29.4055 11.1854 29.4055 8.50237C29.4055 5.8194 27.3028 3.63623 24.7188 3.63623H15.0927C15.002 3.63623 14.9281 3.55944 14.9281 3.46526V1.75002C14.7355 1.67905 14.5974 1.49069 14.5974 1.26762C14.5974 0.983668 14.8192 0.753332 15.0927 0.753332C15.3662 0.753332 15.5881 0.983668 15.5881 1.26762C15.5881 1.49069 15.4499 1.67905 15.2574 1.75002V3.29721H24.7188C27.4842 3.29721 29.7334 5.63252 29.7334 8.50381C29.7334 11.3751 27.4842 13.7104 24.7188 13.7104H21.6938C21.6254 13.9103 21.444 14.0538 21.2291 14.0538ZM19.7181 14.9882C19.4446 14.9882 19.2227 14.7578 19.2227 14.4739C19.2227 14.2508 19.3609 14.0624 19.5534 13.9915V12.4892C19.5534 12.395 19.6274 12.3182 19.7181 12.3182H24.7187C26.7447 12.3182 28.3925 10.6073 28.3925 8.50381C28.3925 6.40032 26.7447 4.68942 24.7187 4.68942H13.6291C13.5384 4.68942 13.4644 4.61263 13.4644 4.51845V0.996686C13.2719 0.925714 13.1338 0.737389 13.1338 0.514286C13.1351 0.230336 13.3556 0 13.6291 0C13.9026 0 14.1244 0.230336 14.1244 0.514286C14.1244 0.737389 13.9863 0.925714 13.7937 0.996686V4.34752H24.7173C26.9247 4.34752 28.7204 6.21199 28.7204 8.50381C28.7204 10.7957 26.9247 12.6601 24.7173 12.6601H19.8813V13.9929C20.0739 14.0639 20.212 14.2522 20.212 14.4753C20.212 14.7593 19.9901 14.9896 19.7167 14.9896L19.7181 14.9882Z" fill="white"/>
</g>
</mask>
<g mask="url(#mask0_1191_4991)">
<g id="Group_2">
<path id="Vector_2" d="M29.7194 0H0V28.2979H29.7194V0Z" fill="url(#paint0_linear_1191_4991)"/>
</g>
</g>
</g>
</g>
<defs>
<linearGradient id="paint0_linear_1191_4991" x1="14.8968" y1="-3.85105e-06" x2="14.8968" y2="28.2979" gradientUnits="userSpaceOnUse">
<stop stop-color="#DBA400"/>
<stop offset="0.015625" stop-color="#DCA400"/>
<stop offset="0.03125" stop-color="#DCA500"/>
<stop offset="0.046875" stop-color="#DDA600"/>
<stop offset="0.0625" stop-color="#DDA700"/>
<stop offset="0.078125" stop-color="#DEA800"/>
<stop offset="0.09375" stop-color="#DFA800"/>
<stop offset="0.109375" stop-color="#DFA900"/>
<stop offset="0.125" stop-color="#E0AA00"/>
<stop offset="0.140625" stop-color="#E0AB00"/>
<stop offset="0.15625" stop-color="#E1AC00"/>
<stop offset="0.171875" stop-color="#E2AC00"/>
<stop offset="0.1875" stop-color="#E2AD00"/>
<stop offset="0.203125" stop-color="#E3AE00"/>
<stop offset="0.21875" stop-color="#E3AF00"/>
<stop offset="0.234375" stop-color="#E4B000"/>
<stop offset="0.25" stop-color="#E4B100"/>
<stop offset="0.265625" stop-color="#E5B100"/>
<stop offset="0.28125" stop-color="#E6B200"/>
<stop offset="0.296875" stop-color="#E6B300"/>
<stop offset="0.3125" stop-color="#E7B400"/>
<stop offset="0.328125" stop-color="#E7B500"/>
<stop offset="0.34375" stop-color="#E8B500"/>
<stop offset="0.359375" stop-color="#E8B600"/>
<stop offset="0.375" stop-color="#E9B700"/>
<stop offset="0.390625" stop-color="#EAB800"/>
<stop offset="0.40625" stop-color="#EAB900"/>
<stop offset="0.421875" stop-color="#EBB900"/>
<stop offset="0.4375" stop-color="#EBBA00"/>
<stop offset="0.453125" stop-color="#ECBB00"/>
<stop offset="0.46875" stop-color="#ECBC00"/>
<stop offset="0.484375" stop-color="#EDBD00"/>
<stop offset="0.5" stop-color="#EEBD00"/>
<stop offset="0.515625" stop-color="#EEBE00"/>
<stop offset="0.53125" stop-color="#EFBF00"/>
<stop offset="0.546875" stop-color="#EFC000"/>
<stop offset="0.5625" stop-color="#F0C100"/>
<stop offset="0.578125" stop-color="#F0C200"/>
<stop offset="0.59375" stop-color="#F1C200"/>
<stop offset="0.609375" stop-color="#F2C300"/>
<stop offset="0.625" stop-color="#F2C400"/>
<stop offset="0.640625" stop-color="#F3C500"/>
<stop offset="0.65625" stop-color="#F3C600"/>
<stop offset="0.671875" stop-color="#F4C600"/>
<stop offset="0.6875" stop-color="#F5C700"/>
<stop offset="0.703125" stop-color="#F5C800"/>
<stop offset="0.71875" stop-color="#F6C900"/>
<stop offset="0.734375" stop-color="#F6CA00"/>
<stop offset="0.75" stop-color="#F7CA00"/>
<stop offset="0.765625" stop-color="#F7CB00"/>
<stop offset="0.78125" stop-color="#F8CC00"/>
<stop offset="0.796875" stop-color="#F9CD00"/>
<stop offset="0.8125" stop-color="#F9CE00"/>
<stop offset="0.828125" stop-color="#FACE00"/>
<stop offset="0.84375" stop-color="#FACF00"/>
<stop offset="0.859375" stop-color="#FBD000"/>
<stop offset="0.875" stop-color="#FBD100"/>
<stop offset="0.890625" stop-color="#FCD200"/>
<stop offset="0.90625" stop-color="#FDD300"/>
<stop offset="0.921875" stop-color="#FDD300"/>
<stop offset="0.9375" stop-color="#FED400"/>
<stop offset="0.953125" stop-color="#FED500"/>
<stop offset="0.96875" stop-color="#FFD600"/>
<stop offset="1" stop-color="#FFD600"/>
</linearGradient>
</defs>
</svg>
