<svg width="27" height="27" viewBox="0 0 27 27" fill="none" xmlns="http://www.w3.org/2000/svg">
<g id="Clip path group">
<circle id="Ellipse 1" cx="13.5" cy="13.5" r="13.5" fill="url(#paint0_linear_1191_5086)"/>
<mask id="mask0_1191_5086" style="mask-type:luminance" maskUnits="userSpaceOnUse" x="3" y="4" width="21" height="20">
<g id="64e28945e6">
<path id="Vector" d="M13.5 23.8909C11.8245 23.8909 10.4205 22.6702 10.1047 20.9985C9.95448 20.9685 9.837 20.8356 9.82835 20.6696C9.81871 20.4736 9.96412 20.3077 10.1519 20.2977H10.1634C10.3502 20.2977 10.5005 20.4446 10.5101 20.6346C10.5168 20.7766 10.4427 20.9015 10.3291 20.9645C10.6276 22.5212 11.9372 23.656 13.499 23.656C15.2824 23.656 16.7335 22.1493 16.7335 20.2977V16.7764C16.6006 16.7274 16.5053 16.5974 16.5053 16.4435C16.5053 16.2475 16.6584 16.0885 16.8471 16.0885C17.0359 16.0885 17.189 16.2475 17.189 16.4435C17.189 16.5974 17.0936 16.7274 16.9607 16.7764V20.2967C16.9607 22.2783 15.4085 23.8899 13.5 23.8899V23.8909ZM13.8399 23.377C13.6627 23.377 13.5125 23.234 13.5 23.0481C13.4865 22.8531 13.6281 22.6832 13.8158 22.6692L13.8322 22.6682C13.9641 22.6682 14.0739 22.7391 14.1336 22.8441C15.2371 22.5482 16.0344 21.5094 16.0344 20.2977V15.4097C16.0344 15.3447 16.0854 15.2917 16.148 15.2917H17.9728C18.02 15.1537 18.1451 15.0548 18.2934 15.0548C18.4822 15.0548 18.6353 15.2137 18.6353 15.4097C18.6353 15.6057 18.4822 15.7646 18.2934 15.7646C18.1451 15.7646 18.02 15.6656 17.9728 15.5277H16.2626V20.2967C16.2626 21.6224 15.3873 22.7582 14.1779 23.0751C14.1548 23.235 14.0277 23.363 13.8649 23.375L13.8486 23.376L13.8399 23.377ZM8.37818 19.9297C8.18944 19.9297 8.03634 19.7708 8.03634 19.5748C8.03634 19.3788 8.18944 19.2199 8.37818 19.2199C8.52647 19.2199 8.65165 19.3189 8.69882 19.4568H10.7373V15.7076C10.6045 15.6586 10.5091 15.5287 10.5091 15.3747C10.5091 15.1787 10.6622 15.0198 10.851 15.0198C11.0397 15.0198 11.1928 15.1787 11.1928 15.3747C11.1928 15.5287 11.0975 15.6586 10.9646 15.7076V19.5748C10.9646 19.6398 10.9136 19.6928 10.851 19.6928H8.69882C8.65165 19.8308 8.52647 19.9297 8.37818 19.9297ZM8.83652 18.798C8.64778 18.798 8.49468 18.639 8.49468 18.4431C8.49468 18.2471 8.64778 18.0881 8.83652 18.0881C8.98481 18.0881 9.10999 18.1871 9.15719 18.3251H10.0392V14.3529C9.90635 14.3039 9.81102 14.1739 9.81102 14.02C9.81102 13.824 9.96412 13.665 10.1529 13.665C10.3416 13.665 10.4947 13.824 10.4947 14.02C10.4947 14.1739 10.3994 14.3039 10.2665 14.3529V18.4431C10.2665 18.508 10.2154 18.561 10.1529 18.561H9.15719C9.10999 18.699 8.98481 18.798 8.83652 18.798ZM13.7686 21.3415C13.3652 21.3415 13.0378 21.0005 13.0378 20.5816V12.1494L13.1514 12.0964H14.3868C14.4494 12.0964 14.5005 12.1494 14.5005 12.2144V18.884C14.6333 18.9329 14.7287 19.0629 14.7287 19.2169C14.7287 19.4129 14.5756 19.5718 14.3868 19.5718C14.1981 19.5718 14.045 19.4129 14.045 19.2169C14.045 19.0629 14.1403 18.9329 14.2732 18.884V12.3323H13.2641V20.5816C13.2641 20.8706 13.4904 21.1055 13.7686 21.1055L13.9766 21.0575C13.9477 20.9855 13.9401 20.9035 13.9632 20.8225C14.0065 20.6676 14.1432 20.5676 14.2905 20.5676L14.3541 20.5726C14.5669 20.6376 14.6709 20.8346 14.6179 21.0225C14.5746 21.1775 14.4379 21.2775 14.2905 21.2775L14.226 21.2725L14.1731 21.2565L14.1355 21.2385C14.0257 21.3045 13.8986 21.3415 13.7686 21.3415ZM8.68053 15.9166C8.4918 15.9166 8.3387 15.7576 8.3387 15.5617C8.3387 15.4077 8.43403 15.2777 8.56692 15.2287V13.0572H6.70075C5.42392 13.0572 4.33003 12.1484 4.02477 10.8926C3.87071 10.8686 3.74745 10.7367 3.73589 10.5677C3.72241 10.3727 3.86398 10.2028 4.05173 10.1888L4.0604 10.1878H4.07677C4.25395 10.1878 4.40417 10.3307 4.41669 10.5167C4.42632 10.6557 4.35603 10.7807 4.24818 10.8466C4.53321 11.9924 5.53369 12.8212 6.70075 12.8212H8.68053C8.74311 12.8212 8.79415 12.8742 8.79415 12.9392V15.2287C8.92704 15.2777 9.02237 15.4077 9.02237 15.5617C9.02237 15.7576 8.86927 15.9166 8.68053 15.9166ZM9.93908 11.2276V10.1808H7.0503V11.2276H9.93908ZM6.93666 11.4635L6.82304 11.4105V9.99782L6.93666 9.94483H10.0527C10.1153 9.94483 10.1663 9.99782 10.1663 10.0628V11.3455C10.1663 11.4105 10.1153 11.4635 10.0527 11.4635H6.93666ZM12.5226 11.4635L12.409 11.4105V10.0628C12.409 9.99782 12.46 9.94483 12.5226 9.94483H17.7696C17.8168 9.80685 17.942 9.70787 18.0903 9.70787C18.279 9.70787 18.4321 9.86685 18.4321 10.0628C18.4321 10.2588 18.279 10.4177 18.0903 10.4177C17.942 10.4177 17.8168 10.3187 17.7696 10.1808H12.6362V11.2276H20.4533C20.7316 11.2276 20.9579 10.9926 20.9579 10.7037L20.9116 10.4877C20.8702 10.5057 20.825 10.5157 20.7778 10.5157L20.7162 10.5117C20.5043 10.4477 20.4003 10.2508 20.4533 10.0628C20.4966 9.90783 20.6334 9.80785 20.7807 9.80785L20.8452 9.81286C21.058 9.87784 21.162 10.0748 21.109 10.2628L21.1033 10.2848L21.0859 10.3248C21.1495 10.4387 21.1861 10.5697 21.1861 10.7057C21.1861 11.1246 20.8577 11.4655 20.4543 11.4655L12.5226 11.4635ZM12.3849 20.1327C12.1962 20.1327 12.0431 19.9737 12.0431 19.7778C12.0431 19.6238 12.1384 19.4938 12.2713 19.4448V12.3323H11.5491C11.4865 12.3323 11.4355 12.2793 11.4355 12.2144V9.15199C11.4355 9.08702 11.4865 9.03402 11.5491 9.03402H18.9829C19.0301 8.89604 19.1553 8.79706 19.3036 8.79706C19.4923 8.79706 19.6454 8.95603 19.6454 9.15199C19.6454 9.34795 19.4923 9.50692 19.3036 9.50692C19.1553 9.50692 19.0301 9.40794 18.9829 9.26998H11.6627V12.0964H12.3849C12.4475 12.0964 12.4985 12.1494 12.4985 12.2144V19.4458C12.6314 19.4948 12.7268 19.6248 12.7268 19.7788C12.7268 19.9747 12.5737 20.1337 12.3849 20.1337V20.1327ZM6.70075 12.3323C5.56258 12.3323 4.63623 11.3705 4.63623 10.1888C4.63623 9.00702 5.56258 8.04522 6.70075 8.04522H8.44558C8.49276 7.90726 8.61794 7.80828 8.76623 7.80828C8.95497 7.80828 9.10807 7.96725 9.10807 8.16321C9.10807 8.35915 8.95497 8.51814 8.76623 8.51814C8.61794 8.51814 8.49276 8.41916 8.44558 8.28118H6.70075C5.68775 8.28118 4.86349 9.13699 4.86349 10.1888C4.86349 11.2406 5.68775 12.0964 6.70075 12.0964H10.7373V9.26998H6.79608C6.34255 9.26998 5.97278 9.6539 5.97278 10.1248V10.4257C6.10567 10.4747 6.201 10.6047 6.201 10.7587C6.201 10.9546 6.04788 11.1136 5.85916 11.1136C5.67043 11.1136 5.51732 10.9546 5.51732 10.7587C5.51732 10.6047 5.61265 10.4747 5.74552 10.4257V10.1238C5.74552 9.52291 6.21641 9.03302 6.79512 9.03302H10.851C10.9136 9.03302 10.9646 9.08602 10.9646 9.15099V12.2144C10.9646 12.2793 10.9136 12.3323 10.851 12.3323H6.70075ZM13.5 22.4402C12.3618 22.4402 11.4355 21.4784 11.4355 20.2967V13.0572H9.69257C9.64538 13.1951 9.5202 13.2941 9.37191 13.2941C9.18319 13.2941 9.03007 13.1352 9.03007 12.9392C9.03007 12.7432 9.18319 12.5843 9.37191 12.5843C9.5202 12.5843 9.64538 12.6833 9.69257 12.8212H11.5491C11.6117 12.8212 11.6627 12.8742 11.6627 12.9392V20.2967C11.6627 21.3484 12.487 22.2043 13.5 22.2043C14.513 22.2043 15.3373 21.3484 15.3373 20.2967V12.2144C15.3373 12.1494 15.3883 12.0964 15.4509 12.0964H20.2992C21.3122 12.0964 22.1365 11.2406 22.1365 10.1888C22.1365 9.13699 21.3122 8.28118 20.2992 8.28118H11.5491C11.4865 8.28118 11.4355 8.22818 11.4355 8.16321V7.55633H7.36326C7.31606 7.69431 7.19088 7.79329 7.04259 7.79329C6.85385 7.79329 6.70075 7.6343 6.70075 7.43836C6.70075 7.2424 6.85385 7.08344 7.04259 7.08344C7.19088 7.08344 7.31606 7.1824 7.36326 7.32037H11.5491C11.6117 7.32037 11.6627 7.37337 11.6627 7.43836V8.04522H20.2982C21.4364 8.04522 22.3628 9.00702 22.3628 10.1888C22.3628 11.3705 21.4364 12.3323 20.2982 12.3323H15.5645V20.2967C15.5645 21.4784 14.6382 22.4402 13.5 22.4402ZM7.94389 14.019C7.7956 14.019 7.67042 13.92 7.62325 13.782H6.70075C4.79224 13.783 3.23999 12.1704 3.23999 10.1888C3.23999 8.2072 4.79224 6.59553 6.70075 6.59553H11.0801C11.1273 6.45755 11.2525 6.35857 11.4008 6.35857C11.5895 6.35857 11.7426 6.51755 11.7426 6.71349C11.7426 6.90946 11.5895 7.06842 11.4008 7.06842C11.2525 7.06842 11.1273 6.96944 11.0801 6.83148H6.70075C4.91742 6.83148 3.46725 8.33717 3.46725 10.1888C3.46725 12.0404 4.91742 13.5471 6.70075 13.5471H7.62226C7.66946 13.4091 7.79464 13.3101 7.94293 13.3101C8.13167 13.3101 8.28477 13.4691 8.28477 13.665C8.28477 13.861 8.13167 14.02 7.94293 14.02L7.94389 14.019ZM17.8909 14.019C17.7022 14.019 17.5491 13.86 17.5491 13.6641C17.5491 13.4681 17.7022 13.3091 17.8909 13.3091C18.0392 13.3091 18.1644 13.4081 18.2116 13.5461H20.2992C22.0826 13.5461 23.5337 12.0394 23.5337 10.1878C23.5337 8.33617 22.0826 6.82949 20.2992 6.82949H13.656C13.5934 6.82949 13.5423 6.77649 13.5423 6.7115V5.52775C13.4095 5.47877 13.3141 5.34878 13.3141 5.19483C13.3141 4.99887 13.4672 4.83991 13.656 4.83991C13.8447 4.83991 13.9978 4.99887 13.9978 5.19483C13.9978 5.34878 13.9025 5.47877 13.7696 5.52775V6.59553H20.2992C22.2077 6.59553 23.76 8.2072 23.76 10.1888C23.76 12.1704 22.2077 13.782 20.2992 13.782H18.2116C18.1644 13.92 18.0392 14.019 17.8909 14.019ZM16.8481 14.6638C16.6593 14.6638 16.5062 14.5049 16.5062 14.3089C16.5062 14.155 16.6016 14.025 16.7345 13.976V12.9392C16.7345 12.8742 16.7855 12.8212 16.8481 12.8212H20.2992C21.6974 12.8212 22.8346 11.6405 22.8346 10.1888C22.8346 8.73708 21.6974 7.55633 20.2992 7.55633H12.6459C12.5833 7.55633 12.5323 7.50334 12.5323 7.43834V5.00785C12.3994 4.95887 12.304 4.8289 12.304 4.67493C12.305 4.47897 12.4571 4.32001 12.6459 4.32001C12.8346 4.32001 12.9877 4.47897 12.9877 4.67493C12.9877 4.8289 12.8924 4.95887 12.7595 5.00785V7.32037H20.2982C21.8216 7.32037 23.0609 8.60711 23.0609 10.1888C23.0609 11.7705 21.8216 13.0572 20.2982 13.0572H16.9607V13.977C17.0936 14.026 17.189 14.156 17.189 14.3099C17.189 14.5059 17.0359 14.6649 16.8471 14.6649L16.8481 14.6638Z" fill="white"/>
</g>
</mask>
<g mask="url(#mask0_1191_5086)">
<g id="Group">
<path id="Vector_2" d="M23.7504 4.32001H3.23999V23.8493H23.7504V4.32001Z" fill="#111111"/>
</g>
</g>
</g>
<defs>
<linearGradient id="paint0_linear_1191_5086" x1="13.5" y1="0" x2="13.5" y2="27" gradientUnits="userSpaceOnUse">
<stop stop-color="#DAA200"/>
<stop offset="1" stop-color="#FFD600"/>
</linearGradient>
</defs>
</svg>
