<svg width="27" height="27" viewBox="0 0 27 27" fill="none" xmlns="http://www.w3.org/2000/svg">
<g id="Usdt" clip-path="url(#clip0_1191_5092)">
<path id="Vector" d="M13.5 26.73C20.8067 26.73 26.73 20.8067 26.73 13.5C26.73 6.19326 20.8067 0.269989 13.5 0.269989C6.19329 0.269989 0.27002 6.19326 0.27002 13.5C0.27002 20.8067 6.19329 26.73 13.5 26.73Z" fill="#50AF95"/>
<path id="Vector_2" d="M15.147 11.0498V9.06553H19.6876V6.03937H7.32458V9.06526H11.8652V11.0487C8.17508 11.2182 5.40002 11.9497 5.40002 12.8253C5.40002 13.7009 8.17535 14.4312 11.8654 14.6016V20.9604H15.147V14.6C23.7012 14.1799 23.6952 11.4704 15.147 11.0498Z" fill="white"/>
<path id="Vector_3" d="M15.147 14.0605C12.9357 14.2479 6.14871 13.8791 6.17058 12.6708C6.17058 11.9923 8.60436 11.4245 11.8652 11.2787V13.4962C12.0331 13.5548 15.103 13.5532 15.147 13.497V11.2803C22.6827 11.637 22.6843 13.7063 15.147 14.0605Z" fill="#50AF95"/>
</g>
<defs>
<clipPath id="clip0_1191_5092">
<rect width="27" height="27" fill="white"/>
</clipPath>
</defs>
</svg>
